<svg width="184" height="172" viewBox="0 0 184 172" fill="none" xmlns="http://www.w3.org/2000/svg">
<path id="Vector" d="M72.09 19.5L53.7567 38.5H18.6667V152.5H165.333V38.5H130.243L111.91 19.5H72.09ZM64.5 0.5H119.5L137.833 19.5H174.5C176.931 19.5 179.263 20.5009 180.982 22.2825C182.701 24.0641 183.667 26.4804 183.667 29V162C183.667 164.52 182.701 166.936 180.982 168.718C179.263 170.499 176.931 171.5 174.5 171.5H9.49999C7.06884 171.5 4.73727 170.499 3.01818 168.718C1.2991 166.936 0.333328 164.52 0.333328 162V29C0.333328 26.4804 1.2991 24.0641 3.01818 22.2825C4.73727 20.5009 7.06884 19.5 9.49999 19.5H46.1667L64.5 0.5ZM92 143C78.6287 143 65.805 137.495 56.35 127.696C46.8951 117.898 41.5833 104.608 41.5833 90.75C41.5833 76.8924 46.8951 63.6024 56.35 53.8037C65.805 44.0049 78.6287 38.5 92 38.5C105.371 38.5 118.195 44.0049 127.65 53.8037C137.105 63.6024 142.417 76.8924 142.417 90.75C142.417 104.608 137.105 117.898 127.65 127.696C118.195 137.495 105.371 143 92 143ZM92 124C100.509 124 108.67 120.497 114.686 114.261C120.703 108.026 124.083 99.5685 124.083 90.75C124.083 81.9315 120.703 73.4743 114.686 67.2387C108.67 61.0031 100.509 57.5 92 57.5C83.491 57.5 75.3304 61.0031 69.3137 67.2387C63.2969 73.4743 59.9167 81.9315 59.9167 90.75C59.9167 99.5685 63.2969 108.026 69.3137 114.261C75.3304 120.497 83.491 124 92 124Z" fill="black"/>
</svg>
