<svg width="164" height="166" viewBox="0 0 164 166" fill="none" xmlns="http://www.w3.org/2000/svg">
<path id="Vector" d="M77.1 58.25H142.433C138.758 48.7625 133.145 40.6143 125.594 33.8053C118.042 26.9963 109.364 22.2195 99.5583 19.475L77.1 58.25ZM58.3167 74.75L90.9833 17.825C89.4861 17.55 87.9889 17.3438 86.4917 17.2063C84.9944 17.0688 83.4972 17 82 17C73.0167 17 64.6458 18.7188 56.8875 22.1562C49.1292 25.5938 42.2556 30.2 36.2667 35.975L58.3167 74.75ZM18.7083 99.5H63.2167L30.55 42.575C26.1945 48.2125 22.7917 54.4357 20.3417 61.2448C17.8917 68.0537 16.6667 75.3055 16.6667 83C16.6667 85.8875 16.8382 88.6732 17.1812 91.3572C17.5242 94.0412 18.0332 96.7555 18.7083 99.5ZM64.4417 146.525L86.4917 107.75H21.5667C25.2417 117.238 30.8576 125.386 38.4145 132.195C45.9714 139.004 54.6471 143.781 64.4417 146.525ZM82 149C90.9833 149 99.3542 147.281 107.113 143.844C114.871 140.406 121.744 135.8 127.733 130.025L105.683 91.25L73.0167 148.175C74.5139 148.45 75.9784 148.656 77.4103 148.794C78.8422 148.931 80.3721 149 82 149ZM133.45 123.425C137.806 117.787 141.208 111.567 143.658 104.763C146.108 97.96 147.333 90.7055 147.333 83C147.333 80.1125 147.165 77.3295 146.827 74.651C146.489 71.9725 145.978 69.2555 145.292 66.5H100.783L133.45 123.425ZM82 165.5C70.8389 165.5 60.2903 163.333 50.3542 158.999C40.4181 154.665 31.7423 148.753 24.327 141.262C16.9117 133.771 11.0589 125.006 6.76868 114.969C2.47846 104.931 0.333344 94.275 0.333344 83C0.333344 71.5875 2.47846 60.8983 6.76868 50.9323C11.0589 40.9663 16.9117 32.235 24.327 24.7385C31.7423 17.242 40.4181 11.3295 50.3542 7.001C60.2903 2.6725 70.8389 0.5055 82 0.5C93.2972 0.5 103.881 2.667 113.752 7.001C123.623 11.335 132.263 17.2475 139.673 24.7385C147.083 32.2295 152.936 40.9608 157.231 50.9323C161.527 60.9037 163.672 71.593 163.667 83C163.667 94.275 161.522 104.931 157.231 114.969C152.941 125.006 147.088 133.773 139.673 141.27C132.258 148.766 123.615 154.679 113.744 159.007C103.873 163.336 93.2918 165.5 82 165.5Z" fill="black"/>
</svg>
