<svg width="193" height="46" viewBox="0 0 193 46" fill="none" xmlns="http://www.w3.org/2000/svg">
<g id="drone logo" style="mix-blend-mode:plus-darker" clip-path="url(#clip0_36_37)">
<g id="Group">
<path id="Vector" d="M72.3333 13.5592H80.7627C83.284 13.353 85.7787 14.2279 87.6999 15.9921C89.4065 18.1494 90.2369 20.9502 90.0059 23.7691C90.2183 26.5161 89.3866 29.2385 87.6999 31.3174C85.8074 33.0634 83.3493 33.9377 80.8596 33.7503H72.3333V13.5592ZM80.0844 29.238C80.8936 29.2638 81.6988 29.108 82.4485 28.7805C83.1027 28.4659 83.6025 27.8692 83.8244 27.1378C84.1781 26.057 84.336 24.9135 84.2894 23.7691C84.333 22.5908 84.1754 21.4139 83.8244 20.2965C83.5892 19.5552 83.115 18.9283 82.4873 18.529C81.7341 18.1619 80.9108 17.9909 80.0844 18.0299H77.8366V29.238H80.0844ZM95.2379 13.5592H105.062C106.919 13.4281 108.743 14.1283 110.101 15.493C111.282 16.9572 111.874 18.8638 111.748 20.7955C111.765 22.0655 111.442 23.3141 110.818 24.3929C110.193 25.4233 109.323 26.256 108.299 26.8051C108.53 26.9848 108.728 27.2107 108.88 27.4705C109.075 27.823 109.243 28.1915 109.384 28.5726L111.554 33.8751H105.741L103.803 29.0092C103.681 28.6934 103.488 28.4149 103.241 28.1983C102.957 28.0286 102.635 27.9492 102.311 27.9695H100.761V33.8751H95.296V13.5592H95.2379ZM103.609 23.3324C104.313 23.4103 105.016 23.169 105.547 22.667C106.022 22.1588 106.264 21.4507 106.206 20.7332C106.206 18.9657 105.45 18.0923 103.842 18.0923H100.644V23.3948H103.57L103.609 23.3324ZM125.661 34.083C123.057 34.2826 120.482 33.3962 118.472 31.6085C116.709 29.4552 115.834 26.6264 116.05 23.7691C115.806 20.864 116.681 17.9785 118.472 15.7842C120.47 13.9714 123.052 13.0751 125.661 13.2889C128.276 13.0763 130.864 13.9722 132.87 15.7842C134.653 17.9818 135.522 20.867 135.272 23.7691C135.493 26.6235 134.626 29.4519 132.87 31.6085C130.844 33.4097 128.246 34.2968 125.622 34.083H125.661ZM125.661 29.0716C126.804 29.1774 127.927 28.7089 128.703 27.8032C129.426 26.5626 129.746 25.1005 129.614 23.6443C129.738 22.1889 129.418 20.7296 128.703 19.4855C126.944 17.794 124.281 17.794 122.522 19.4855C121.824 20.7368 121.505 22.1902 121.611 23.6443C121.497 25.0991 121.816 26.5551 122.522 27.8032C123.319 28.7187 124.458 29.1999 125.622 29.1132L125.661 29.0716ZM140.563 13.5592H145.252L152.344 24.2682V13.5592H157.848V33.7503H153.081L146.027 23.1037V33.7503H140.524L140.563 13.5592ZM163.816 13.5592H178.001V18.0923H169.203V21.3986H176.954V25.9733H169.203V29.2796H178.001V33.8127H163.719L163.816 13.5592Z" fill="#1E375A"/>
<path id="Vector_2" d="M24.5863 5.13732L24.3731 5.34526L31.8336 13.247C30.7355 15.1508 30.1642 17.3504 30.1865 19.5893C30.0978 22.634 31.1941 25.5809 33.2123 27.723C35.2306 29.8652 37.9887 31.0091 40.8249 30.8805C42.9307 30.9139 45.0015 30.3007 46.7933 29.113L54.2925 37.1187C50.2528 42.7817 43.9631 46.0716 37.3175 45.9978C31.6829 46.0871 26.2511 43.7432 22.2428 39.4927C18.2344 35.2422 15.9857 29.4417 16.0019 23.3946C15.9103 16.1689 19.1158 9.35144 24.5863 5.13732ZM28.7525 2.08058C31.6059 0.689579 34.7068 -0.0199069 37.8407 0.00116686C43.4551 -0.0601521 48.8579 2.29752 52.839 6.54616C56.8201 10.7948 59.0469 16.5794 59.0207 22.6044C59.0538 25.9756 58.3921 29.313 57.0829 32.3777L50.3975 25.2037C51.4753 23.3285 52.0456 21.1686 52.0447 18.9654C52.161 15.8975 51.0749 12.9174 49.0498 10.7482C47.0247 8.57904 44.2456 7.41896 41.3869 7.54944C39.3324 7.53728 37.3167 8.15012 35.5735 9.31695L28.7525 2.08058ZM41.5031 25.474C39.8084 25.5374 38.1642 24.8486 36.9578 23.5698C35.7514 22.2909 35.0895 20.5351 35.1278 18.7159C35.0621 16.8789 35.712 15.0955 36.9215 13.7936C38.1311 12.4917 39.791 11.7889 41.5031 11.8538C43.2069 11.8132 44.8516 12.5245 46.053 13.8216C47.2544 15.1187 47.9072 16.8879 47.859 18.7159C47.9251 20.5456 47.2767 22.3219 46.0701 23.6167C44.8636 24.9115 43.2082 25.6073 41.5031 25.5364V25.474Z" fill="#00ABE4"/>
</g>
</g>
<defs>
<clipPath id="clip0_36_37">
<rect width="193" height="46" fill="white"/>
</clipPath>
</defs>
</svg>
