<svg width="178" height="170" viewBox="0 0 178 170" fill="none" xmlns="http://www.w3.org/2000/svg">
<path id="Vector" d="M141.117 130.815C138.82 124.015 132.195 119 124.333 119H115.5V93.5C115.5 91.2457 114.569 89.0837 112.913 87.4896C111.256 85.8955 109.009 85 106.667 85H53.6666V68H71.3333C73.676 68 75.9228 67.1045 77.5794 65.5104C79.236 63.9163 80.1666 61.7543 80.1666 59.5V42.5H97.8333C102.519 42.5 107.012 40.7089 110.326 37.5208C113.639 34.3327 115.5 30.0087 115.5 25.5V22.015C126.069 26.1151 135.448 32.6185 142.834 40.9686C150.22 49.3187 155.394 59.2667 157.912 69.961C160.43 80.6554 160.217 91.7777 157.292 102.376C154.367 112.974 148.817 122.732 141.117 130.815ZM80.1666 152.405C45.275 148.24 18.3333 119.68 18.3333 85C18.3333 79.73 19.04 74.63 20.1883 69.785L62.5 110.5V119C62.5 123.509 64.3613 127.833 67.6744 131.021C70.9876 134.209 75.4811 136 80.1666 136M89 0C77.3999 0 65.9134 2.19859 55.1963 6.47024C44.4792 10.7419 34.7414 17.0029 26.5389 24.8959C9.97315 40.8365 0.666626 62.4566 0.666626 85C0.666626 107.543 9.97315 129.163 26.5389 145.104C34.7414 152.997 44.4792 159.258 55.1963 163.53C65.9134 167.801 77.3999 170 89 170C112.427 170 134.895 161.045 151.461 145.104C168.027 129.163 177.333 107.543 177.333 85C177.333 73.8376 175.049 62.7846 170.609 52.4719C166.17 42.1592 159.664 32.7889 151.461 24.8959C143.259 17.0029 133.521 10.7419 122.804 6.47024C112.087 2.19859 100.6 0 89 0Z" fill="black"/>
</svg>
