<svg width="203" height="189" viewBox="0 0 203 189" fill="none" xmlns="http://www.w3.org/2000/svg">
<g id="Group">
<path id="Vector" fill-rule="evenodd" clip-rule="evenodd" d="M167.252 7.36768C188.464 18.4076 203.388 40.8218 202.73 66.9703C201.91 99.6108 173.468 128.399 124.98 154.114C117.791 157.93 110.218 162.875 101.5 162.875C92.9443 162.875 85.0468 157.839 78.01 154.105C29.5416 128.399 1.09033 99.6017 0.270203 66.9703C-0.387922 40.8218 14.5363 18.4166 35.7482 7.36768C55.5932 -2.94886 80.521 -3.01215 101.5 12.2231C122.479 -3.01215 147.407 -2.9579 167.252 7.36768ZM157.056 23.0007C142.942 15.6589 125.304 15.9211 110.035 29.7187C108.916 30.722 107.586 31.5181 106.121 32.0613C104.656 32.6044 103.086 32.8841 101.5 32.8841C99.914 32.8841 98.3436 32.6044 96.8789 32.0613C95.4142 31.5181 94.084 30.722 92.9646 29.7187C77.6961 15.9211 60.0583 15.6589 45.9441 23.0007C31.3236 30.6138 20.0241 46.7622 20.5202 66.5816C21.0872 89.2852 41.1752 113.544 88.3577 138.571C92.4887 140.768 96.802 143.58 101.5 144.747C106.198 143.58 110.511 140.768 114.642 138.571C161.825 113.544 181.913 89.2942 182.48 66.5725C182.986 46.7713 171.676 30.6138 157.056 23.0007Z" fill="black"/>
</g>
</svg>
