<svg width="29" height="20" viewBox="0 0 29 20" fill="none" xmlns="http://www.w3.org/2000/svg">
<path id="Vector" d="M25.7778 0C26.6324 0 27.452 0.234126 28.0562 0.650874C28.6605 1.06762 29 1.63285 29 2.22222V17.7778C29 18.3671 28.6605 18.9324 28.0562 19.3491C27.452 19.7659 26.6324 20 25.7778 20H3.22222C2.36764 20 1.54805 19.7659 0.943767 19.3491C0.339483 18.9324 0 18.3671 0 17.7778V2.22222C0 1.63285 0.339483 1.06762 0.943767 0.650874C1.54805 0.234126 2.36764 0 3.22222 0H25.7778ZM24.9722 17.2222V11.3333C24.9722 10.3727 24.4189 9.45133 23.4339 8.77204C22.4489 8.09274 21.113 7.71111 19.72 7.71111C18.3506 7.71111 16.7556 8.28889 15.9822 9.15556V7.92222H11.4872V17.2222H15.9822V11.7444C15.9822 10.8889 16.9811 10.1889 18.2217 10.1889C18.8199 10.1889 19.3936 10.3528 19.8166 10.6445C20.2396 10.9362 20.4772 11.3319 20.4772 11.7444V17.2222H24.9722ZM6.25111 6.17778C6.96896 6.17778 7.65742 5.98111 8.16501 5.63104C8.67261 5.28098 8.95778 4.80618 8.95778 4.31111C8.95778 3.27778 7.74945 2.43333 6.25111 2.43333C5.52899 2.43333 4.83644 2.63117 4.32582 2.98332C3.8152 3.33547 3.52833 3.81309 3.52833 4.31111C3.52833 5.34444 4.75278 6.17778 6.25111 6.17778ZM8.49056 17.2222V7.92222H4.02778V17.2222H8.49056Z" fill="url(#paint0_linear_65_107)"/>
<defs>
<linearGradient id="paint0_linear_65_107" x1="14.1977" y1="18.6111" x2="14.1977" y2="1.38889" gradientUnits="userSpaceOnUse">
<stop stop-color="#049D67"/>
<stop offset="1" stop-color="#00ABE4"/>
</linearGradient>
</defs>
</svg>
