<svg width="32" height="31" viewBox="0 0 32 31" fill="none" xmlns="http://www.w3.org/2000/svg">
<g id="Vector" style="mix-blend-mode:screen">
<path d="M22.538 0.356934C24.837 0.356934 27.0419 1.23491 28.6675 2.79771C30.2932 4.36051 31.2065 6.48013 31.2065 8.69027V22.0236C31.2065 24.2337 30.2932 26.3534 28.6675 27.9162C27.0419 29.479 24.837 30.3569 22.538 30.3569H8.66846C6.36944 30.3569 4.16459 29.479 2.53893 27.9162C0.913282 26.3534 0 24.2337 0 22.0236V8.69027C0 6.48013 0.913282 4.36051 2.53893 2.79771C4.16459 1.23491 6.36944 0.356934 8.66846 0.356934H22.538ZM15.6032 8.69027C13.824 8.69027 12.1129 9.34766 10.8238 10.5265C9.53462 11.7053 8.76609 13.3153 8.67713 15.0236L8.66846 15.3569C8.66846 16.6755 9.07518 17.9644 9.83718 19.0607C10.5992 20.1571 11.6822 21.0115 12.9494 21.5161C14.2166 22.0207 15.6109 22.1527 16.9561 21.8955C18.3014 21.6383 19.537 21.0033 20.5069 20.071C21.4767 19.1386 22.1372 17.9507 22.4048 16.6575C22.6723 15.3643 22.535 14.0239 22.0101 12.8057C21.4853 11.5875 20.5964 10.5463 19.456 9.8138C18.3156 9.08126 16.9748 8.69027 15.6032 8.69027ZM23.4049 6.19027C22.9802 6.19032 22.5704 6.34019 22.253 6.61146C21.9357 6.88272 21.733 7.25651 21.6833 7.66193L21.6712 7.8736C21.6716 8.2984 21.8409 8.70699 22.1442 9.01588C22.4475 9.32477 22.8621 9.51066 23.3032 9.53555C23.7444 9.56045 24.1787 9.42248 24.5176 9.14982C24.8564 8.87717 25.0742 8.49043 25.1264 8.0686L25.1385 7.85693C25.1385 7.41491 24.9559 6.99098 24.6308 6.67842C24.3056 6.36586 23.8647 6.19027 23.4049 6.19027Z" fill="url(#paint0_linear_65_103)"/>
</g>
<defs>
<linearGradient id="paint0_linear_65_103" x1="15.2779" y1="28.2736" x2="15.2779" y2="2.44027" gradientUnits="userSpaceOnUse">
<stop stop-color="#049D67"/>
<stop offset="1" stop-color="#00ABE4"/>
</linearGradient>
</defs>
</svg>
