<svg width="31" height="31" viewBox="0 0 31 31" fill="none" xmlns="http://www.w3.org/2000/svg">
<g id="Vector" style="mix-blend-mode:screen">
<path d="M26.8731 0.356934C27.7572 0.356934 28.6051 0.708123 29.2302 1.33324C29.8553 1.95837 30.2065 2.80621 30.2065 3.69027V27.0236C30.2065 27.9077 29.8553 28.7555 29.2302 29.3806C28.6051 30.0057 27.7572 30.3569 26.8731 30.3569H3.53982C2.65576 30.3569 1.80791 30.0057 1.18279 29.3806C0.557671 28.7555 0.206482 27.9077 0.206482 27.0236V3.69027C0.206482 2.80621 0.557671 1.95837 1.18279 1.33324C1.80791 0.708123 2.65576 0.356934 3.53982 0.356934H26.8731ZM26.0398 26.1903V17.3569C26.0398 15.9159 25.4674 14.5339 24.4484 13.515C23.4295 12.496 22.0475 11.9236 20.6065 11.9236C19.1898 11.9236 17.5398 12.7903 16.7398 14.0903V12.2403H12.0898V26.1903H16.7398V17.9736C16.7398 16.6903 17.7731 15.6403 19.0565 15.6403C19.6753 15.6403 20.2688 15.8861 20.7064 16.3237C21.144 16.7613 21.3898 17.3548 21.3898 17.9736V26.1903H26.0398ZM6.67315 9.6236C7.41576 9.6236 8.12795 9.3286 8.65305 8.8035C9.17815 8.2784 9.47315 7.56621 9.47315 6.8236C9.47315 5.2736 8.22315 4.00693 6.67315 4.00693C5.92612 4.00693 5.20969 4.30369 4.68146 4.83192C4.15324 5.36014 3.85648 6.07657 3.85648 6.8236C3.85648 8.3736 5.12315 9.6236 6.67315 9.6236ZM8.98982 26.1903V12.2403H4.37315V26.1903H8.98982Z" fill="url(#paint0_linear_65_107)"/>
</g>
<defs>
<linearGradient id="paint0_linear_65_107" x1="14.8937" y1="28.2736" x2="14.8937" y2="2.44027" gradientUnits="userSpaceOnUse">
<stop stop-color="#049D67"/>
<stop offset="1" stop-color="#00ABE4"/>
</linearGradient>
</defs>
</svg>
