<svg width="43" height="43" viewBox="0 0 43 43" fill="none" xmlns="http://www.w3.org/2000/svg">
<g id="maki:arrow">
<path id="Vector" d="M23.3668 7.08958C23.8919 6.56466 24.604 6.26978 25.3464 6.26978C26.0889 6.26978 26.801 6.56466 27.326 7.08958L39.926 19.6896C40.451 20.2147 40.7458 20.9267 40.7458 21.6692C40.7458 22.4116 40.451 23.1237 39.926 23.6488L27.326 36.2488C26.798 36.7588 26.0907 37.041 25.3565 37.0347C24.6224 37.0283 23.9201 36.7338 23.401 36.2147C22.8818 35.6955 22.5873 34.9933 22.581 34.2591C22.5746 33.5249 22.8568 32.8177 23.3668 32.2896L30.9464 24.4692H4.34645C3.60384 24.4692 2.89165 24.1742 2.36655 23.6491C1.84145 23.124 1.54645 22.4118 1.54645 21.6692C1.54645 20.9266 1.84145 20.2144 2.36655 19.6893C2.89165 19.1642 3.60384 18.8692 4.34645 18.8692H30.9464L23.3668 11.0488C22.8419 10.5237 22.547 9.81164 22.547 9.06918C22.547 8.32672 22.8419 7.61465 23.3668 7.08958Z" fill="black"/>
</g>
</svg>
