<svg width="31" height="31" viewBox="0 0 31 31" fill="none" xmlns="http://www.w3.org/2000/svg">
<g id="Vector" style="mix-blend-mode:screen">
<path d="M12.2065 21.7855L19.9915 15.3569L12.2065 8.92836V21.7855ZM29.5465 5.00693C29.7415 6.01408 29.8765 7.36408 29.9665 9.07836C30.0715 10.7926 30.1165 12.2712 30.1165 13.5569L30.2065 15.3569C30.2065 20.0498 29.9665 23.4998 29.5465 25.7069C29.1715 27.6355 28.3015 28.8784 26.9515 29.4141C26.2465 29.6926 24.9565 29.8855 22.9765 30.0141C21.0265 30.1641 19.2415 30.2284 17.5915 30.2284L15.2065 30.3569C8.92148 30.3569 5.00648 30.0141 3.46148 29.4141C2.11148 28.8784 1.24148 27.6355 0.866482 25.7069C0.671482 24.6998 0.536482 23.3498 0.446482 21.6355C0.341482 19.9212 0.296482 18.4426 0.296482 17.1569L0.206482 15.3569C0.206482 10.6641 0.446482 7.21408 0.866482 5.00693C1.24148 3.07836 2.11148 1.83551 3.46148 1.29979C4.16648 1.02122 5.45648 0.828362 7.43648 0.69979C9.38648 0.54979 11.1715 0.485505 12.8215 0.485505L15.2065 0.356934C21.4915 0.356934 25.4065 0.699791 26.9515 1.29979C28.3015 1.83551 29.1715 3.07836 29.5465 5.00693Z" fill="url(#paint0_linear_65_109)"/>
</g>
<defs>
<linearGradient id="paint0_linear_65_109" x1="14.8937" y1="28.2736" x2="14.8937" y2="2.44027" gradientUnits="userSpaceOnUse">
<stop stop-color="#049D67"/>
<stop offset="1" stop-color="#00ABE4"/>
</linearGradient>
</defs>
</svg>
